<svg width="10" height="15" viewBox="0 0 10 15" fill="none" xmlns="http://www.w3.org/2000/svg">
<path fill-rule="evenodd" clip-rule="evenodd" d="M8.78939 0.410145C9.05185 0.672684 9.19929 1.02872 9.19929 1.39995C9.19929 1.77117 9.05185 2.12721 8.78939 2.38974L4.17919 6.99994L8.78939 11.6101C8.92311 11.7393 9.02976 11.8938 9.10314 12.0646C9.17651 12.2354 9.21513 12.4191 9.21674 12.605C9.21836 12.7909 9.18294 12.9752 9.11254 13.1473C9.04215 13.3193 8.9382 13.4756 8.80675 13.6071C8.6753 13.7385 8.51898 13.8425 8.34693 13.9129C8.17487 13.9833 7.99052 14.0187 7.80463 14.0171C7.61874 14.0155 7.43503 13.9769 7.26423 13.9035C7.09342 13.8301 6.93894 13.7235 6.80979 13.5897L1.20979 7.98974C0.947335 7.72721 0.799893 7.37117 0.799893 6.99994C0.799893 6.62872 0.947335 6.27268 1.20979 6.01015L6.80979 0.410145C7.07233 0.147686 7.42836 0.000244141 7.79959 0.000244141C8.17082 0.000244141 8.52685 0.147686 8.78939 0.410145V0.410145Z" fill="black"/>
</svg>
