<svg width="20" height="18" viewBox="0 0 20 18" fill="none" xmlns="http://www.w3.org/2000/svg">
<path fill-rule="evenodd" clip-rule="evenodd" d="M1.60039 0.600098C1.91865 0.600098 2.22388 0.726526 2.44892 0.951569C2.67396 1.17661 2.80039 1.48184 2.80039 1.8001V16.2001C2.80039 16.5184 2.67396 16.8236 2.44892 17.0486C2.22388 17.2737 1.91865 17.4001 1.60039 17.4001C1.28213 17.4001 0.976906 17.2737 0.751862 17.0486C0.526819 16.8236 0.400391 16.5184 0.400391 16.2001V1.8001C0.400391 1.48184 0.526819 1.17661 0.751862 0.951569C0.976906 0.726526 1.28213 0.600098 1.60039 0.600098ZM10.8488 4.5517C11.0738 4.77673 11.2001 5.0819 11.2001 5.4001C11.2001 5.71829 11.0738 6.02346 10.8488 6.2485L9.29719 7.8001H18.4004C18.7187 7.8001 19.0239 7.92653 19.2489 8.15157C19.474 8.37661 19.6004 8.68184 19.6004 9.0001C19.6004 9.31836 19.474 9.62358 19.2489 9.84863C19.0239 10.0737 18.7187 10.2001 18.4004 10.2001H9.29719L10.8488 11.7517C11.0674 11.978 11.1883 12.2811 11.1856 12.5958C11.1829 12.9104 11.0567 13.2114 10.8342 13.4339C10.6117 13.6564 10.3107 13.7826 9.99607 13.7853C9.68144 13.788 9.37831 13.6671 9.15199 13.4485L5.55199 9.8485C5.32703 9.62346 5.20065 9.31829 5.20065 9.0001C5.20065 8.6819 5.32703 8.37673 5.55199 8.1517L9.15199 4.5517C9.37702 4.32673 9.68219 4.20035 10.0004 4.20035C10.3186 4.20035 10.6238 4.32673 10.8488 4.5517Z" fill="black"/>
</svg>
