<svg width="20" height="18" viewBox="0 0 20 18" fill="none" xmlns="http://www.w3.org/2000/svg">
<path fill-rule="evenodd" clip-rule="evenodd" d="M18.3996 17.3999C18.7179 17.3999 19.0231 17.2735 19.2481 17.0484C19.4732 16.8234 19.5996 16.5182 19.5996 16.1999L19.5996 1.7999C19.5996 1.48164 19.4732 1.17642 19.2481 0.951374C19.0231 0.72633 18.7179 0.599903 18.3996 0.599903C18.0813 0.599903 17.7761 0.72633 17.5511 0.951374C17.326 1.17642 17.1996 1.48164 17.1996 1.7999V16.1999C17.1996 16.5182 17.326 16.8234 17.5511 17.0484C17.7761 17.2735 18.0813 17.3999 18.3996 17.3999ZM6.04801 6.2483C6.2666 6.02198 6.38755 5.71886 6.38482 5.40422C6.38208 5.08959 6.25588 4.78861 6.03339 4.56612C5.8109 4.34363 5.50993 4.21743 5.19529 4.21469C4.88066 4.21196 4.57753 4.33291 4.35121 4.5515L0.751209 8.1515C0.526245 8.37654 0.399866 8.68171 0.399866 8.9999C0.399866 9.3181 0.526245 9.62327 0.751209 9.8483L4.35121 13.4483C4.46191 13.5629 4.59432 13.6543 4.74073 13.7172C4.88713 13.7801 5.04459 13.8132 5.20393 13.8146C5.36326 13.816 5.52128 13.7856 5.66875 13.7253C5.81623 13.665 5.95021 13.5758 6.06288 13.4632C6.17556 13.3505 6.26466 13.2165 6.325 13.069C6.38533 12.9216 6.4157 12.7636 6.41431 12.6042C6.41293 12.4449 6.37982 12.2874 6.31693 12.141C6.25404 11.9946 6.16262 11.8622 6.04801 11.7515L4.49641 10.1999L13.5996 10.1999C13.9179 10.1999 14.2231 10.0735 14.4481 9.84843C14.6732 9.62339 14.7996 9.31816 14.7996 8.9999C14.7996 8.68164 14.6732 8.37642 14.4481 8.15137C14.2231 7.92633 13.9179 7.7999 13.5996 7.7999L4.49641 7.7999L6.04801 6.2483Z" fill="black"/>
</svg>
