<svg  width="63" height="67" viewBox="0 0 18 19" fill="none" xmlns="http://www.w3.org/2000/svg">
<path fill-rule="evenodd" clip-rule="evenodd" d="M16.707 5.293C16.8945 5.48053 16.9998 5.73484 16.9998 6C16.9998 6.26516 16.8945 6.51947 16.707 6.707L8.70698 14.707C8.51945 14.8945 8.26514 14.9998 7.99998 14.9998C7.73482 14.9998 7.48051 14.8945 7.29298 14.707L3.29298 10.707C3.11082 10.5184 3.01003 10.2658 3.01231 10.0036C3.01458 9.7414 3.11975 9.49059 3.30516 9.30518C3.49057 9.11977 3.74138 9.0146 4.00358 9.01233C4.26578 9.01005 4.51838 9.11084 4.70698 9.293L7.99998 12.586L15.293 5.293C15.4805 5.10553 15.7348 5.00021 16 5.00021C16.2651 5.00021 16.5195 5.10553 16.707 5.293Z" fill="black"/>
</svg>
