<svg width="20" height="20" viewBox="0 0 20 20" fill="none" xmlns="http://www.w3.org/2000/svg">
<path fill-rule="evenodd" clip-rule="evenodd" d="M19.6004 9.9999C19.6004 12.546 18.589 14.9878 16.7886 16.7881C14.9883 18.5885 12.5465 19.5999 10.0004 19.5999C7.45431 19.5999 5.01252 18.5885 3.21217 16.7881C1.41182 14.9878 0.400391 12.546 0.400391 9.9999C0.400391 7.45382 1.41182 5.01203 3.21217 3.21168C5.01252 1.41133 7.45431 0.399902 10.0004 0.399902C12.5465 0.399902 14.9883 1.41133 16.7886 3.21168C18.589 5.01203 19.6004 7.45382 19.6004 9.9999V9.9999ZM17.2004 9.9999C17.2004 11.1915 16.9112 12.3147 16.3988 13.3047L14.57 11.4747C14.8438 10.6271 14.8762 9.72005 14.6636 8.8551L16.538 6.9807C16.9628 7.8987 17.2004 8.9199 17.2004 9.9999ZM11.0024 14.6955L12.8984 16.5915C11.9852 16.9936 10.9982 17.2008 10.0004 17.1999C8.9578 17.2012 7.92747 16.9752 6.98119 16.5375L8.85559 14.6631C9.5596 14.8356 10.2935 14.8467 11.0024 14.6955V14.6955ZM5.38999 11.3403C5.15384 10.5272 5.13687 9.66609 5.34079 8.8443L5.24479 8.9403L3.40879 7.1007C3.00656 8.01427 2.79934 9.00171 2.80039 9.9999C2.80039 11.1447 3.06799 12.2271 3.54319 13.1883L5.39119 11.3403H5.38999ZM6.69559 3.6003C7.71706 3.07232 8.85054 2.7978 10.0004 2.7999C11.1452 2.7999 12.2276 3.0675 13.1888 3.5427L11.3408 5.3907C10.4195 5.12235 9.43896 5.13615 8.52559 5.4303L6.69559 3.6015V3.6003ZM12.4004 9.9999C12.4004 10.6364 12.1475 11.2469 11.6974 11.697C11.2474 12.147 10.6369 12.3999 10.0004 12.3999C9.36387 12.3999 8.75342 12.147 8.30334 11.697C7.85325 11.2469 7.60039 10.6364 7.60039 9.9999C7.60039 9.36338 7.85325 8.75293 8.30334 8.30285C8.75342 7.85276 9.36387 7.5999 10.0004 7.5999C10.6369 7.5999 11.2474 7.85276 11.6974 8.30285C12.1475 8.75293 12.4004 9.36338 12.4004 9.9999V9.9999Z" fill="black"/>
</svg>
