<svg width="32" height="33" viewBox="0 0 32 33" fill="none" xmlns="http://www.w3.org/2000/svg">
<path fill-rule="evenodd" clip-rule="evenodd" d="M4.80078 13.4999C4.80078 13.0756 4.96935 12.6686 5.26941 12.3685C5.56947 12.0685 5.97643 11.8999 6.40078 11.8999H25.6008C26.0251 11.8999 26.4321 12.0685 26.7322 12.3685C27.0322 12.6686 27.2008 13.0756 27.2008 13.4999C27.2008 13.9242 27.0322 14.3312 26.7322 14.6313C26.4321 14.9313 26.0251 15.0999 25.6008 15.0999H6.40078C5.97643 15.0999 5.56947 14.9313 5.26941 14.6313C4.96935 14.3312 4.80078 13.9242 4.80078 13.4999ZM4.80078 21.4999C4.80078 21.0756 4.96935 20.6686 5.26941 20.3685C5.56947 20.0685 5.97643 19.8999 6.40078 19.8999H16.0008C16.4251 19.8999 16.8321 20.0685 17.1322 20.3685C17.4322 20.6686 17.6008 21.0756 17.6008 21.4999C17.6008 21.9242 17.4322 22.3312 17.1322 22.6313C16.8321 22.9313 16.4251 23.0999 16.0008 23.0999H6.40078C5.97643 23.0999 5.56947 22.9313 5.26941 22.6313C4.96935 22.3312 4.80078 21.9242 4.80078 21.4999Z" fill="black"/>
</svg>
