<svg xmlns="http://www.w3.org/2000/svg" viewBox="0 0 304.73 58.7">
    <title>Logo principal</title>
    <g id="Capa_2" data-name="Capa 2">
        <g id="Capa_1-2" data-name="Capa 1">
            <path d="M33.78,17c0,9.55-9.7,12-16.89,12S0,26.53,0,17V.73H8.39V16c0,3.72,2.87,6.41,8.5,6.41s8.5-2.69,8.5-6.41V.73h8.39Z"/>
            <polygon points="79.49 28.82 78.44 28.82 53.09 14.04 53.09 28.25 44.7 28.25 44.7 0.16 45.75 0.16 71.1 14.82 71.1 0.73 79.49 0.73 79.49 28.82"/>
            <path d="M114.3,28.25H91V.73H114.3c5,0,9.11,2.17,9.11,7.07,0,2.32-1.3,4.2-2.9,4.65,2.47.33,5,2.61,5,6.45,0,6.53-5,9.35-11.22,9.35m-1.89-21h-13v3.3h13.08c1.45,0,2.32-.61,2.32-1.71s-.91-1.59-2.36-1.59m.25,9.59H99.37v4.94h13.48c2.87,0,4-.82,4-2.66,0-1.59-1.13-2.28-4.22-2.28"/>
            <path d="M161.84,28.25l-2.33-4.37H143.28l-2.36,4.37H130.64L147.2.53h8.57L172.3,28.25ZM151.41,8.45l-4.75,8.94h9.47Z"/>
            <path d="M202.1,28.25l-7.59-9.64h-6.32v9.64H179.8V.73h23.35c4.87,0,9.12,2.74,9.12,8.66,0,5.14-3.34,8-7.34,8.49h-.76l9.11,10.37Zm-.95-21h-13v5.22h13.15a2.48,2.48,0,0,0,2.76-2.69c0-1.56-1.17-2.53-2.95-2.53"/>
            <path d="M241.89,28.25H223.41V.73h18.48c9,0,17.36,3.07,17.36,13.47S251,28.25,241.89,28.25M240.44,7.43H231.8V21.55h8.64c6.72,0,10.17-2.53,10.17-7.26,0-4.49-3.45-6.86-10.17-6.86"/>
            <path d="M286.17,29c-8.93,0-18.52-3.92-18.52-14.49S277.16,0,286.17,0s18.56,4,18.56,14.49S295.32,29,286.17,29m0-22.41c-6.1,0-9.62,3-9.62,7.92s3.52,7.92,9.62,7.92,9.66-3,9.66-7.92-3.52-7.92-9.66-7.92"/>
            <path d="M99.38,58.38H91.51V46.25h7.86c3.85,0,7.44,1.38,7.44,5.94s-3.55,6.19-7.43,6.19m-.51-9.54H94.52v6.95h4.35c3,0,4.83-1.21,4.83-3.57s-1.82-3.38-4.83-3.38"/>
            <polygon points="116.24 58.38 116.24 46.25 129.11 46.25 129.11 48.82 119.25 48.82 119.25 50.64 129.11 50.64 129.11 53.1 119.25 53.1 119.25 55.8 129.11 55.8 129.11 58.38 116.24 58.38"/>
            <path d="M145,58.7a17.75,17.75,0,0,1-6.45-1l.66-2.55a15.7,15.7,0,0,0,5.81,1c2.92,0,4.11-.46,4.11-1.29s-1.06-1-3.95-1.3c-4.37-.38-6.58-1.15-6.58-3.85,0-2.5,2.67-3.8,7.18-3.8a15.57,15.57,0,0,1,6.05,1l-.64,2.55a13.56,13.56,0,0,0-5.42-1c-2.61,0-4.07.29-4.07,1s.9,1,3.64,1.22c4.43.36,6.85.92,6.85,3.74,0,3.12-2.92,4.25-7.19,4.25"/>
            <rect x="161.75" y="46.25" width="3.01" height="12.13"/>
            <path d="M182.28,58.7c-4.06,0-8.05-1.69-8.05-6.39,0-4.89,4.47-6.39,8.05-6.39a13.42,13.42,0,0,1,6.45,1.39l-.61,2.52a12.92,12.92,0,0,0-5.57-1.28c-3.29,0-5.18,1.33-5.18,3.8s2,3.76,5.18,3.76a10.78,10.78,0,0,0,3.09-.43V52.11h3v5.38a15.65,15.65,0,0,1-6.37,1.21"/>
            <polygon points="213.22 58.63 212.85 58.63 201.57 51.36 201.57 58.38 198.56 58.38 198.56 45.99 198.96 45.99 210.21 53.23 210.21 46.25 213.22 46.25 213.22 58.63"/>
        </g>
    </g>
</svg>