<svg width="20" height="20" viewBox="0 0 20 20" fill="none" xmlns="http://www.w3.org/2000/svg">
<path fill-rule="evenodd" clip-rule="evenodd" d="M19.6004 9.9999C19.6004 12.546 18.589 14.9878 16.7886 16.7881C14.9883 18.5885 12.5465 19.5999 10.0004 19.5999C7.45431 19.5999 5.01252 18.5885 3.21217 16.7881C1.41182 14.9878 0.400391 12.546 0.400391 9.9999C0.400391 7.45382 1.41182 5.01203 3.21217 3.21168C5.01252 1.41133 7.45431 0.399902 10.0004 0.399902C12.5465 0.399902 14.9883 1.41133 16.7886 3.21168C18.589 5.01203 19.6004 7.45382 19.6004 9.9999ZM12.4004 6.3999C12.4004 7.03642 12.1475 7.64687 11.6974 8.09696C11.2474 8.54705 10.6369 8.7999 10.0004 8.7999C9.36387 8.7999 8.75342 8.54705 8.30334 8.09696C7.85325 7.64687 7.60039 7.03642 7.60039 6.3999C7.60039 5.76338 7.85325 5.15293 8.30334 4.70285C8.75342 4.25276 9.36387 3.9999 10.0004 3.9999C10.6369 3.9999 11.2474 4.25276 11.6974 4.70285C12.1475 5.15293 12.4004 5.76338 12.4004 6.3999ZM10.0004 11.1999C8.85151 11.1997 7.72672 11.5293 6.75969 12.1496C5.79266 12.7699 5.02404 13.6548 4.54519 14.6991C5.2204 15.4846 6.05752 16.1148 6.99912 16.5465C7.94073 16.9781 8.96456 17.201 10.0004 17.1999C11.0362 17.201 12.0601 16.9781 13.0017 16.5465C13.9433 16.1148 14.7804 15.4846 15.4556 14.6991C14.9767 13.6548 14.2081 12.7699 13.2411 12.1496C12.2741 11.5293 11.1493 11.1997 10.0004 11.1999Z" fill="black"/>
</svg>
