<?xml version="1.0" encoding="UTF-8"?>
<svg id="Capa_2" data-name="Capa 2" xmlns="http://www.w3.org/2000/svg" viewBox="0 0 100 100">
  <defs>
    <style>
      .cls-1 {
        fill: #fff;
      }
    </style>
  </defs>
  <g id="Capa_1-2" data-name="Capa 1">
    <g>
      <rect class="cls-1" x="0" y="0" width="100" height="100" rx="25.5" ry="25.5"/>
      <g>
        <g id="Capa_2-2" data-name="Capa 2">
          <g id="Capa_1-2" data-name="Capa 1-2">
            <path d="m21.41,71.25h-4.25v-6.54h4.24c2.08,0,4.01.74,4.01,3.2s-1.92,3.34-4.01,3.34m-.28-5.15h-2.35v3.75h2.35c1.62,0,2.61-.65,2.61-1.93s-.98-1.82-2.61-1.82"/>
            <polygon points="30.51 71.25 30.51 64.7 37.45 64.7 37.45 66.09 32.13 66.09 32.13 67.07 37.45 67.07 37.45 68.4 32.13 68.4 32.13 69.86 37.45 69.86 37.45 71.25 30.51 71.25"/>
            <path d="m46.03,71.42c-1.18.04-2.36-.15-3.48-.54l.36-1.38c1,.38,2.07.56,3.13.54,1.58,0,2.22-.25,2.22-.7s-.57-.54-2.13-.7c-2.36-.21-3.55-.62-3.55-2.08,0-1.35,1.44-2.05,3.87-2.05,1.11-.04,2.22.15,3.26.54l-.35,1.38c-.93-.38-1.92-.56-2.92-.54-1.41,0-2.2.16-2.2.54s.49.54,1.96.66c2.39.19,3.7.5,3.7,2.02,0,1.68-1.58,2.29-3.88,2.29"/>
            <rect x="55.06" y="64.7" width="1.62" height="6.54"/>
            <path d="m66.14,71.42c-2.19,0-4.34-.91-4.34-3.45s2.41-3.45,4.34-3.45c1.2-.04,2.4.21,3.48.75l-.33,1.36c-.94-.45-1.96-.69-3.01-.69-1.78,0-2.79.72-2.79,2.05s1.08,2.03,2.79,2.03c.56,0,1.13-.07,1.67-.23v-1.93h1.62v2.9c-1.09.46-2.26.68-3.44.65"/>
            <polygon points="82.83 71.38 82.63 71.38 76.55 67.46 76.55 71.25 74.92 71.25 74.92 64.56 75.14 64.56 81.21 68.47 81.21 64.7 82.83 64.7 82.83 71.38"/>
          </g>
        </g>
        <g id="Capa_2-3" data-name="Capa 2">
          <g id="Capa_1-2-2" data-name="Capa 1-2">
            <path d="m47.11,47.01c0,9.64-9.8,12.12-17.06,12.12s-17.06-2.49-17.06-12.12v-16.43h8.47v15.42c0,3.76,2.9,6.47,8.58,6.47s8.58-2.72,8.58-6.47v-15.42h8.47v16.43Z"/>
            <path d="m75.68,58.37h-23.53v-27.79h23.53c5.05,0,9.2,2.19,9.2,7.14,0,2.34-1.31,4.24-2.93,4.7,2.49.33,5.05,2.64,5.05,6.51,0,6.59-5.05,9.44-11.33,9.44m-1.91-21.21h-13.13v3.33h13.21c1.46,0,2.34-.62,2.34-1.73s-.92-1.61-2.38-1.61m.25,9.68h-13.45v4.99h13.61c2.9,0,4.04-.83,4.04-2.69,0-1.61-1.14-2.3-4.26-2.3"/>
          </g>
        </g>
      </g>
    </g>
  </g>
</svg>